<?xml version="1.0" standalone="no"?>
<!DOCTYPE svg PUBLIC "-//W3C//DTD SVG 20010904//EN"
 "http://www.w3.org/TR/2001/REC-SVG-20010904/DTD/svg10.dtd">
<svg version="1.0" xmlns="http://www.w3.org/2000/svg"
 width="161.000000pt" height="101.000000pt" viewBox="0 0 161.000000 101.000000"
 preserveAspectRatio="xMidYMid meet">
<metadata>
Created by potrace 1.16, written by Peter Selinger 2001-2019
</metadata>
<g transform="translate(0.000000,101.000000) scale(0.100000,-0.100000)"
fill="#000000" stroke="none">
<path d="M764 832 c-6 -4 -23 -31 -38 -59 l-26 -53 30 0 c29 0 30 -1 30 -51
l0 -51 90 108 c76 91 88 110 71 112 -11 2 -29 -6 -40 -17 -26 -26 -46 -26 -71
-1 -22 22 -29 24 -46 12z"/>
<path d="M530 365 c0 -79 16 -127 45 -139 39 -15 96 -6 120 19 23 22 25 32 25
110 0 78 -2 85 -20 85 -18 0 -20 -7 -20 -74 0 -81 -13 -106 -54 -106 -37 0
-46 19 -46 102 0 77 0 78 -25 78 -24 0 -25 -2 -25 -75z"/>
<path d="M920 420 c0 -16 7 -20 35 -20 l35 0 0 -90 c0 -89 0 -90 25 -90 25 0
25 1 25 89 l0 90 32 3 c21 2 32 9 34 21 2 15 -8 17 -92 17 -87 0 -94 -1 -94
-20z"/>
</g>
</svg>
